<svg width="58" height="58" viewBox="0 0 58 58" fill="none" xmlns="http://www.w3.org/2000/svg">
    <g clip-path="url(#clip0_1_1098)">
        <path fill-rule="evenodd" clip-rule="evenodd" d="M36.5436 38.0171C37.0778 37.4442 37.0953 36.5946 36.6824 35.9132C36.1098 34.9816 35.8587 33.8878 35.9677 32.7998C36.0767 31.7117 36.5397 30.6894 37.2857 29.8899L42.9691 23.7953L44.188 24.9319C44.8584 25.5571 45.9184 25.5201 46.5436 24.8497C47.1687 24.1793 47.1317 23.1193 46.4613 22.4941L34.2721 11.1275C33.6017 10.5023 32.5417 10.5393 31.9165 11.2097C31.2913 11.8801 31.3283 12.9401 31.9987 13.5653L33.2177 14.702L27.5343 20.7966C25.9658 22.4787 23.5136 22.8356 21.5678 21.8186C20.8593 21.4542 20.0129 21.5309 19.4787 22.1038L19.3309 22.2623C18.7058 22.9327 18.7428 23.9927 19.4132 24.6179L25.4834 30.2785L17.5512 38.8337C16.926 39.5041 16.963 40.5641 17.6334 41.1892C18.3038 41.8144 19.3638 41.7774 19.989 41.107L27.9213 32.5518L34.0403 38.2578C34.7107 38.883 35.7707 38.846 36.3958 38.1756L36.5436 38.0171Z" fill="#F26868"/>
    </g>
    <defs>
        <clipPath id="clip0_1_1098">
            <rect width="40" height="40" fill="white" transform="translate(28.0129 0.732971) rotate(43)"/>
        </clipPath>
    </defs>
</svg>
